<mxfile host="Electron" agent="Mozilla/5.0 (Windows NT 10.0; Win64; x64) AppleWebKit/537.36 (KHTML, like Gecko) draw.io/24.7.5 Chrome/126.0.6478.183 Electron/31.3.0 Safari/537.36" version="24.7.5">
  <diagram name="페이지-1" id="WaTSpfIVkPrU7692LoTT">
    <mxGraphModel dx="1860" dy="2143" grid="1" gridSize="10" guides="1" tooltips="1" connect="1" arrows="1" fold="1" page="1" pageScale="1" pageWidth="827" pageHeight="1169" math="0" shadow="0">
      <root>
        <mxCell id="0" />
        <mxCell id="1" parent="0" />
        <mxCell id="WoRlQj-1Gjs_5DAj1L5b-1" value="&lt;p style=&quot;margin:0px;margin-top:4px;text-align:center;&quot;&gt;&lt;b&gt;choice&lt;/b&gt;&lt;/p&gt;&lt;hr size=&quot;1&quot;/&gt;&lt;p style=&quot;margin:0 0 0 4px;line-height:1.6;&quot;&gt; question_id: integer&lt;br/&gt; no: integer&lt;br/&gt; name: varchar(255)&lt;br/&gt; imageurl: varchar(255)&lt;/p&gt;&lt;hr size=&quot;1&quot;/&gt;&lt;p style=&quot;margin:0 0 0 4px;line-height:1.6;&quot;&gt; id: integer&lt;/p&gt;" style="verticalAlign=top;align=left;overflow=fill;fontSize=14;fontFamily=Helvetica;html=1;rounded=0;shadow=0;comic=0;labelBackgroundColor=none;strokeWidth=1;" vertex="1" parent="1">
          <mxGeometry x="-120" y="399.5" width="155" height="175" as="geometry" />
        </mxCell>
        <mxCell id="WoRlQj-1Gjs_5DAj1L5b-2" value="&lt;p style=&quot;margin:0px;margin-top:4px;text-align:center;&quot;&gt;&lt;b&gt;examno&lt;/b&gt;&lt;/p&gt;&lt;hr size=&quot;1&quot;/&gt;&lt;p style=&quot;margin:0 0 0 4px;line-height:1.6;&quot;&gt; examyear_id: integer&lt;br/&gt; name: varchar(255)&lt;br/&gt; examday: varchar(32)&lt;/p&gt;&lt;hr size=&quot;1&quot;/&gt;&lt;p style=&quot;margin:0 0 0 4px;line-height:1.6;&quot;&gt; id: integer&lt;/p&gt;" style="verticalAlign=top;align=left;overflow=fill;fontSize=14;fontFamily=Helvetica;html=1;rounded=0;shadow=0;comic=0;labelBackgroundColor=none;strokeWidth=1;" vertex="1" parent="1">
          <mxGeometry x="69.5" y="85" width="149" height="145" as="geometry" />
        </mxCell>
        <mxCell id="WoRlQj-1Gjs_5DAj1L5b-3" value="&lt;p style=&quot;margin:0px;margin-top:4px;text-align:center;&quot;&gt;&lt;b&gt;examyear&lt;/b&gt;&lt;/p&gt;&lt;hr size=&quot;1&quot;/&gt;&lt;p style=&quot;margin:0 0 0 4px;line-height:1.6;&quot;&gt; name: varchar(255)&lt;/p&gt;&lt;hr size=&quot;1&quot;/&gt;&lt;p style=&quot;margin:0 0 0 4px;line-height:1.6;&quot;&gt; id: integer&lt;/p&gt;" style="verticalAlign=top;align=left;overflow=fill;fontSize=14;fontFamily=Helvetica;html=1;rounded=0;shadow=0;comic=0;labelBackgroundColor=none;strokeWidth=1;" vertex="1" parent="1">
          <mxGeometry x="76" y="-70" width="136" height="110" as="geometry" />
        </mxCell>
        <mxCell id="WoRlQj-1Gjs_5DAj1L5b-4" value="&lt;p style=&quot;margin:0px;margin-top:4px;text-align:center;&quot;&gt;&lt;b&gt;qname&lt;/b&gt;&lt;/p&gt;&lt;hr size=&quot;1&quot;/&gt;&lt;p style=&quot;margin:0 0 0 4px;line-height:1.6;&quot;&gt; name: varchar(128)&lt;/p&gt;&lt;hr size=&quot;1&quot;/&gt;&lt;p style=&quot;margin:0 0 0 4px;line-height:1.6;&quot;&gt; id: integer&lt;/p&gt;" style="verticalAlign=top;align=left;overflow=fill;fontSize=14;fontFamily=Helvetica;html=1;rounded=0;shadow=0;comic=0;labelBackgroundColor=none;strokeWidth=1;" vertex="1" parent="1">
          <mxGeometry x="270.5" y="-70" width="136" height="110" as="geometry" />
        </mxCell>
        <mxCell id="WoRlQj-1Gjs_5DAj1L5b-5" value="&lt;p style=&quot;margin:0px;margin-top:4px;text-align:center;&quot;&gt;&lt;b&gt;question&lt;/b&gt;&lt;/p&gt;&lt;hr size=&quot;1&quot;/&gt;&lt;p style=&quot;margin:0 0 0 4px;line-height:1.6;&quot;&gt; examno_id: integer&lt;br/&gt; subject_id: integer&lt;br/&gt; correct: integer&lt;br/&gt; name: varchar(255)&lt;br/&gt; imageurl: varchar(255)&lt;br/&gt; content: varchar(1024)&lt;br/&gt; no: integer&lt;br/&gt; questionimageflag: boolean&lt;br/&gt; choiceimageflag: boolean&lt;br/&gt; replycount: integer&lt;br/&gt; correctcount: integer&lt;br/&gt; useflag: boolean&lt;br/&gt; qid: integer&lt;/p&gt;&lt;hr size=&quot;1&quot;/&gt;&lt;p style=&quot;margin:0 0 0 4px;line-height:1.6;&quot;&gt; id: integer&lt;/p&gt;" style="verticalAlign=top;align=left;overflow=fill;fontSize=14;fontFamily=Helvetica;html=1;rounded=0;shadow=0;comic=0;labelBackgroundColor=none;strokeWidth=1;" vertex="1" parent="1">
          <mxGeometry x="142" y="304" width="187" height="366" as="geometry" />
        </mxCell>
        <mxCell id="WoRlQj-1Gjs_5DAj1L5b-6" value="&lt;p style=&quot;margin:0px;margin-top:4px;text-align:center;&quot;&gt;&lt;b&gt;randomquestion&lt;/b&gt;&lt;/p&gt;&lt;hr size=&quot;1&quot;/&gt;&lt;p style=&quot;margin:0 0 0 4px;line-height:1.6;&quot;&gt; createat: timestamp&lt;br/&gt; uuid: char(36)&lt;br/&gt; question_id: integer&lt;br/&gt; remoteip: varchar(40)&lt;/p&gt;&lt;hr size=&quot;1&quot;/&gt;&lt;p style=&quot;margin:0 0 0 4px;line-height:1.6;&quot;&gt; id: integer&lt;/p&gt;" style="verticalAlign=top;align=left;overflow=fill;fontSize=14;fontFamily=Helvetica;html=1;rounded=0;shadow=0;comic=0;labelBackgroundColor=none;strokeWidth=1;" vertex="1" parent="1">
          <mxGeometry x="160" y="730" width="150" height="170" as="geometry" />
        </mxCell>
        <mxCell id="WoRlQj-1Gjs_5DAj1L5b-7" value="&lt;p style=&quot;margin:0px;margin-top:4px;text-align:center;&quot;&gt;&lt;b&gt;results&lt;/b&gt;&lt;/p&gt;&lt;hr size=&quot;1&quot;/&gt;&lt;p style=&quot;margin:0 0 0 4px;line-height:1.6;&quot;&gt; createat: timestamp&lt;br/&gt; uuid: char(36)&lt;br/&gt; question_id: integer&lt;br/&gt; answer_no: integer&lt;br/&gt; correctflag: integer&lt;br/&gt; qid: integer&lt;br/&gt; remoteip: varchar(40)&lt;/p&gt;&lt;hr size=&quot;1&quot;/&gt;&lt;p style=&quot;margin:0 0 0 4px;line-height:1.6;&quot;&gt; id: integer&lt;/p&gt;" style="verticalAlign=top;align=left;overflow=fill;fontSize=14;fontFamily=Helvetica;html=1;rounded=0;shadow=0;comic=0;labelBackgroundColor=none;strokeWidth=1;" vertex="1" parent="1">
          <mxGeometry x="430" y="370" width="150" height="239.5" as="geometry" />
        </mxCell>
        <mxCell id="WoRlQj-1Gjs_5DAj1L5b-8" value="&lt;p style=&quot;margin:0px;margin-top:4px;text-align:center;&quot;&gt;&lt;b&gt;subject&lt;/b&gt;&lt;/p&gt;&lt;hr size=&quot;1&quot;/&gt;&lt;p style=&quot;margin:0 0 0 4px;line-height:1.6;&quot;&gt; name: varchar(255)&lt;br/&gt; qid: integer&lt;/p&gt;&lt;hr size=&quot;1&quot;/&gt;&lt;p style=&quot;margin:0 0 0 4px;line-height:1.6;&quot;&gt; id: integer&lt;/p&gt;" style="verticalAlign=top;align=left;overflow=fill;fontSize=14;fontFamily=Helvetica;html=1;rounded=0;shadow=0;comic=0;labelBackgroundColor=none;strokeWidth=1;" vertex="1" parent="1">
          <mxGeometry x="303.5" y="110" width="136" height="120" as="geometry" />
        </mxCell>
        <mxCell id="WoRlQj-1Gjs_5DAj1L5b-9" value="&lt;p style=&quot;margin:0px;margin-top:4px;text-align:center;&quot;&gt;&lt;b&gt;userinfo&lt;/b&gt;&lt;/p&gt;&lt;hr size=&quot;1&quot;/&gt;&lt;p style=&quot;margin:0 0 0 4px;line-height:1.6;&quot;&gt; user_id: varchar(255)&lt;br/&gt; user_nm: varchar(20)&lt;br/&gt; user_pw: varchar(100)&lt;br/&gt; use_flag: char&lt;br/&gt; created_at: timestamp&lt;br/&gt; created_by: varchar(20)&lt;br/&gt; updated_at: timestamp&lt;br/&gt; updated_by: varchar(20)&lt;/p&gt;&lt;hr size=&quot;1&quot;/&gt;&lt;p style=&quot;margin:0 0 0 4px;line-height:1.6;&quot;&gt; id: integer&lt;/p&gt;" style="verticalAlign=top;align=left;overflow=fill;fontSize=14;fontFamily=Helvetica;html=1;rounded=0;shadow=0;comic=0;labelBackgroundColor=none;strokeWidth=1;" vertex="1" parent="1">
          <mxGeometry x="490" y="-60" width="166" height="260" as="geometry" />
        </mxCell>
        <mxCell id="WoRlQj-1Gjs_5DAj1L5b-10" value="" style="html=1;rounded=1;dashed=0;startArrow=none;endArrow=block;endSize=12;strokeColor=#595959;exitX=1;exitY=0.5;exitDx=0;exitDy=0;entryX=0;entryY=0.5;entryDx=0;entryDy=0;" edge="1" parent="1" source="WoRlQj-1Gjs_5DAj1L5b-1" target="WoRlQj-1Gjs_5DAj1L5b-5">
          <mxGeometry width="50" height="50" relative="1" as="geometry">
            <mxPoint x="-40" y="490" as="sourcePoint" />
            <mxPoint x="142" y="510" as="targetPoint" />
          </mxGeometry>
        </mxCell>
        <mxCell id="WoRlQj-1Gjs_5DAj1L5b-11" value="question_id:id" style="edgeLabel;resizable=0;html=1;align=left;verticalAlign=top;strokeColor=default;" vertex="1" connectable="0" parent="WoRlQj-1Gjs_5DAj1L5b-10">
          <mxGeometry x="200" y="690" as="geometry" />
        </mxCell>
        <mxCell id="WoRlQj-1Gjs_5DAj1L5b-12" value="" style="html=1;rounded=1;edgeStyle=orthogonalEdgeStyle;dashed=0;startArrow=none;endArrow=block;endSize=12;strokeColor=#595959;exitX=0.500;exitY=0.000;exitDx=0;exitDy=0;entryX=0.500;entryY=1.000;entryDx=0;entryDy=0;" edge="1" parent="1" source="WoRlQj-1Gjs_5DAj1L5b-2" target="WoRlQj-1Gjs_5DAj1L5b-3">
          <mxGeometry width="50" height="50" relative="1" as="geometry">
            <Array as="points" />
          </mxGeometry>
        </mxCell>
        <mxCell id="WoRlQj-1Gjs_5DAj1L5b-13" value="examyear_id:id" style="edgeLabel;resizable=0;html=1;align=left;verticalAlign=top;strokeColor=default;" vertex="1" connectable="0" parent="WoRlQj-1Gjs_5DAj1L5b-12">
          <mxGeometry x="110" y="58" as="geometry" />
        </mxCell>
        <mxCell id="WoRlQj-1Gjs_5DAj1L5b-14" value="" style="html=1;rounded=1;edgeStyle=orthogonalEdgeStyle;dashed=0;startArrow=none;endArrow=block;endSize=12;strokeColor=#595959;exitX=0.167;exitY=0.000;exitDx=0;exitDy=0;entryX=0.500;entryY=1.000;entryDx=0;entryDy=0;" edge="1" parent="1" source="WoRlQj-1Gjs_5DAj1L5b-5" target="WoRlQj-1Gjs_5DAj1L5b-2">
          <mxGeometry width="50" height="50" relative="1" as="geometry">
            <Array as="points">
              <mxPoint x="173" y="278" />
              <mxPoint x="144" y="278" />
            </Array>
          </mxGeometry>
        </mxCell>
        <mxCell id="WoRlQj-1Gjs_5DAj1L5b-15" value="examno_id:id" style="edgeLabel;resizable=0;html=1;align=left;verticalAlign=top;strokeColor=default;" vertex="1" connectable="0" parent="WoRlQj-1Gjs_5DAj1L5b-14">
          <mxGeometry x="120" y="260" as="geometry" />
        </mxCell>
        <mxCell id="WoRlQj-1Gjs_5DAj1L5b-16" value="" style="html=1;rounded=1;edgeStyle=orthogonalEdgeStyle;dashed=0;startArrow=none;endArrow=block;endSize=12;strokeColor=#595959;exitX=0.500;exitY=0.000;exitDx=0;exitDy=0;" edge="1" parent="1" source="WoRlQj-1Gjs_5DAj1L5b-5" target="WoRlQj-1Gjs_5DAj1L5b-4">
          <mxGeometry width="50" height="50" relative="1" as="geometry">
            <Array as="points">
              <mxPoint x="236" y="278" />
              <mxPoint x="258" y="278" />
              <mxPoint x="258" y="105" />
              <mxPoint x="304" y="105" />
            </Array>
          </mxGeometry>
        </mxCell>
        <mxCell id="WoRlQj-1Gjs_5DAj1L5b-17" value="qid:id" style="edgeLabel;resizable=0;html=1;align=left;verticalAlign=top;strokeColor=default;" vertex="1" connectable="0" parent="WoRlQj-1Gjs_5DAj1L5b-16">
          <mxGeometry x="240" y="140" as="geometry" />
        </mxCell>
        <mxCell id="WoRlQj-1Gjs_5DAj1L5b-18" value="" style="html=1;rounded=1;edgeStyle=orthogonalEdgeStyle;dashed=0;startArrow=none;endArrow=block;endSize=12;strokeColor=#595959;exitX=0.833;exitY=0.000;exitDx=0;exitDy=0;entryX=0.25;entryY=1;entryDx=0;entryDy=0;" edge="1" parent="1" source="WoRlQj-1Gjs_5DAj1L5b-5" target="WoRlQj-1Gjs_5DAj1L5b-8">
          <mxGeometry width="50" height="50" relative="1" as="geometry">
            <Array as="points">
              <mxPoint x="298" y="278" />
              <mxPoint x="338" y="278" />
            </Array>
            <mxPoint x="380" y="240" as="targetPoint" />
          </mxGeometry>
        </mxCell>
        <mxCell id="WoRlQj-1Gjs_5DAj1L5b-19" value="subject_id:id" style="edgeLabel;resizable=0;html=1;align=left;verticalAlign=top;strokeColor=default;" vertex="1" connectable="0" parent="WoRlQj-1Gjs_5DAj1L5b-18">
          <mxGeometry x="310" y="250" as="geometry" />
        </mxCell>
        <mxCell id="WoRlQj-1Gjs_5DAj1L5b-20" value="" style="html=1;rounded=1;dashed=0;startArrow=none;endArrow=block;endSize=12;strokeColor=#595959;exitX=0.500;exitY=0.000;exitDx=0;exitDy=0;entryX=0.5;entryY=1;entryDx=0;entryDy=0;" edge="1" parent="1" source="WoRlQj-1Gjs_5DAj1L5b-6" target="WoRlQj-1Gjs_5DAj1L5b-5">
          <mxGeometry width="50" height="50" relative="1" as="geometry" />
        </mxCell>
        <mxCell id="WoRlQj-1Gjs_5DAj1L5b-21" value="question_id:id" style="edgeLabel;resizable=0;html=1;align=left;verticalAlign=top;strokeColor=default;" vertex="1" connectable="0" parent="WoRlQj-1Gjs_5DAj1L5b-20">
          <mxGeometry x="50" y="460" as="geometry" />
        </mxCell>
        <mxCell id="WoRlQj-1Gjs_5DAj1L5b-22" value="" style="html=1;rounded=1;dashed=0;startArrow=none;endArrow=block;endSize=12;strokeColor=#595959;exitX=0;exitY=0.5;exitDx=0;exitDy=0;" edge="1" parent="1" source="WoRlQj-1Gjs_5DAj1L5b-7" target="WoRlQj-1Gjs_5DAj1L5b-5">
          <mxGeometry width="50" height="50" relative="1" as="geometry" />
        </mxCell>
        <mxCell id="WoRlQj-1Gjs_5DAj1L5b-23" value="question_id:id" style="edgeLabel;resizable=0;html=1;align=left;verticalAlign=top;strokeColor=default;" vertex="1" connectable="0" parent="WoRlQj-1Gjs_5DAj1L5b-22">
          <mxGeometry x="350" y="460" as="geometry" />
        </mxCell>
        <mxCell id="WoRlQj-1Gjs_5DAj1L5b-24" value="" style="html=1;rounded=1;edgeStyle=orthogonalEdgeStyle;dashed=0;startArrow=none;endArrow=block;endSize=12;strokeColor=#595959;exitX=0.500;exitY=0.000;exitDx=0;exitDy=0;entryX=0.500;entryY=1.000;entryDx=0;entryDy=0;" edge="1" parent="1" source="WoRlQj-1Gjs_5DAj1L5b-8" target="WoRlQj-1Gjs_5DAj1L5b-4">
          <mxGeometry width="50" height="50" relative="1" as="geometry">
            <Array as="points">
              <mxPoint x="371.5" y="105" />
              <mxPoint x="338.5" y="105" />
            </Array>
          </mxGeometry>
        </mxCell>
        <mxCell id="WoRlQj-1Gjs_5DAj1L5b-25" value="qid:id" style="edgeLabel;resizable=0;html=1;align=left;verticalAlign=top;strokeColor=default;" vertex="1" connectable="0" parent="WoRlQj-1Gjs_5DAj1L5b-24">
          <mxGeometry x="329" y="58" as="geometry" />
        </mxCell>
      </root>
    </mxGraphModel>
  </diagram>
</mxfile>

